<?xml version="1.0" encoding="UTF-8" standalone="no"?>
<!-- Generated by IcoMoon.io -->

<svg
   xmlns:dc="http://purl.org/dc/elements/1.1/"
   xmlns:cc="http://creativecommons.org/ns#"
   xmlns:rdf="http://www.w3.org/1999/02/22-rdf-syntax-ns#"
   xmlns:svg="http://www.w3.org/2000/svg"
   xmlns="http://www.w3.org/2000/svg"
   xmlns:sodipodi="http://sodipodi.sourceforge.net/DTD/sodipodi-0.dtd"
   xmlns:inkscape="http://www.inkscape.org/namespaces/inkscape"
   version="1.1"
   width="32"
   height="32"
   viewBox="0 0 32 32"
   id="svg3904"
   inkscape:version="0.48.5 r10040"
   sodipodi:docname="headphones.svg"
   inkscape:export-filename="/home/dameat/Downloads/SVG/audio_large.png"
   inkscape:export-xdpi="562.5"
   inkscape:export-ydpi="562.5">
  <metadata
     id="metadata3912">
    <rdf:RDF>
      <cc:Work
         rdf:about="">
        <dc:format>image/svg+xml</dc:format>
        <dc:type
           rdf:resource="http://purl.org/dc/dcmitype/StillImage" />
        <dc:title></dc:title>
      </cc:Work>
    </rdf:RDF>
  </metadata>
  <defs
     id="defs3910" />
  <sodipodi:namedview
     pagecolor="#ffffff"
     bordercolor="#666666"
     borderopacity="1"
     objecttolerance="10"
     gridtolerance="10"
     guidetolerance="10"
     inkscape:pageopacity="0"
     inkscape:pageshadow="2"
     inkscape:window-width="960"
     inkscape:window-height="1028"
     id="namedview3908"
     showgrid="false"
     inkscape:zoom="7.375"
     inkscape:cx="13.442407"
     inkscape:cy="16"
     inkscape:window-x="960"
     inkscape:window-y="24"
     inkscape:window-maximized="0"
     inkscape:current-layer="svg3904" />
  <rect
     style="fill:#920000;fill-opacity:1;fill-rule:nonzero;stroke:none"
     id="rect4434"
     width="40"
     height="40"
     x="-4"
     y="-4"
     rx="5"
     ry="5" />
  <path
     d="M6 18.071v13.857c0.327 0.047 0.66 0.071 1 0.071h1v-14h-1c-0.34 0-0.673 0.025-1 0.071zM24 18v14h1c0.34 0 0.673-0.025 1-0.071v-13.857c-0.327-0.047-0.66-0.071-1-0.071h-1zM32 16c0-8.837-7.163-16-16-16s-16 7.163-16 16c0 1.919 0.338 3.76 0.958 5.465-0.609 1.038-0.958 2.245-0.958 3.535 0 2.792 1.635 5.202 4 6.326v-12.652c-0.629 0.299-1.206 0.689-1.714 1.153-0.187-0.913-0.286-1.859-0.286-2.827 0-7.732 6.268-14 14-14s14 6.268 14 14c0 0.969-0.098 1.914-0.286 2.827-0.509-0.464-1.085-0.854-1.714-1.153v12.652c2.365-1.124 4-3.534 4-6.326 0-1.29-0.349-2.498-0.958-3.535 0.62-1.705 0.958-3.546 0.958-5.465z"
     fill="#000000"
     id="path3906"
     style="fill:#ffffff;fill-opacity:1" />
</svg>
