<?xml version="1.0" encoding="UTF-8" standalone="no"?>
<!-- Generated by IcoMoon.io -->

<svg
   xmlns:dc="http://purl.org/dc/elements/1.1/"
   xmlns:cc="http://creativecommons.org/ns#"
   xmlns:rdf="http://www.w3.org/1999/02/22-rdf-syntax-ns#"
   xmlns:svg="http://www.w3.org/2000/svg"
   xmlns="http://www.w3.org/2000/svg"
   xmlns:sodipodi="http://sodipodi.sourceforge.net/DTD/sodipodi-0.dtd"
   xmlns:inkscape="http://www.inkscape.org/namespaces/inkscape"
   version="1.1"
   width="32"
   height="32"
   viewBox="0 0 32 32"
   id="svg3874"
   inkscape:version="0.48.5 r10040"
   sodipodi:docname="nodigital.svg"
   inkscape:export-filename="/home/dameat/Downloads/SVG/pdf_large.png"
   inkscape:export-xdpi="562.5"
   inkscape:export-ydpi="562.5">
  <metadata
     id="metadata3882">
    <rdf:RDF>
      <cc:Work
         rdf:about="">
        <dc:format>image/svg+xml</dc:format>
        <dc:type
           rdf:resource="http://purl.org/dc/dcmitype/StillImage" />
        <dc:title></dc:title>
      </cc:Work>
    </rdf:RDF>
  </metadata>
  <defs
     id="defs3880" />
  <sodipodi:namedview
     pagecolor="#ffffff"
     bordercolor="#666666"
     borderopacity="1"
     objecttolerance="10"
     gridtolerance="10"
     guidetolerance="10"
     inkscape:pageopacity="0"
     inkscape:pageshadow="2"
     inkscape:window-width="1920"
     inkscape:window-height="1056"
     id="namedview3878"
     showgrid="false"
     inkscape:zoom="7.375"
     inkscape:cx="8.6779661"
     inkscape:cy="-5.0271126"
     inkscape:window-x="0"
     inkscape:window-y="24"
     inkscape:window-maximized="1"
     inkscape:current-layer="svg3874" />
  <rect
     style="fill:#920000;fill-opacity:1;fill-rule:nonzero;stroke:none"
     id="rect4434"
     width="40"
     height="40"
     x="-4"
     y="-4"
     ry="5"
     rx="5" />
  <path
     d="m 26.314,18.421 c -0.427,-0.42 -1.372,-0.643 -2.812,-0.662 -0.974,-0.011 -2.147,0.075 -3.38,0.248 C 19.57,17.688 19,17.342 18.554,16.924 c -1.202,-1.122 -2.205,-2.68 -2.831,-4.394 0.041,-0.16 0.075,-0.301 0.108,-0.444 0,0 0.677,-3.846 0.498,-5.146 C 16.304,6.762 16.289,6.71 16.241,6.571 L 16.182,6.42 C 15.998,5.995 15.637,5.545 15.071,5.57 L 14.73,5.559 c -0.631,0 -1.146,0.323 -1.281,0.805 -0.411,1.514 0.013,3.778 0.781,6.711 l -0.197,0.478 c -0.55,1.34 -1.238,2.689 -1.846,3.88 l -0.079,0.155 c -0.639,1.251 -1.22,2.313 -1.745,3.213 L 9.82,21.088 C 9.78,21.109 8.85,21.601 8.632,21.733 6.78,22.839 5.553,24.094 5.35,25.09 5.285,25.408 5.333,25.815 5.663,26.003 l 0.525,0.264 c 0.228,0.114 0.468,0.172 0.714,0.172 1.319,0 2.85,-1.643 4.959,-5.324 2.435,-0.793 5.208,-1.452 7.638,-1.815 1.852,1.043 4.129,1.767 5.567,1.767 0.255,0 0.475,-0.024 0.654,-0.072 0.276,-0.073 0.508,-0.23 0.65,-0.444 0.279,-0.42 0.335,-0.998 0.26,-1.59 -0.023,-0.176 -0.163,-0.393 -0.315,-0.541 z M 6.615,25.439 c 0.24,-0.658 1.192,-1.958 2.6,-3.111 0.088,-0.072 0.306,-0.276 0.506,-0.466 -1.472,2.348 -2.458,3.283 -3.106,3.577 z M 14.952,6.24 c 0.424,0 0.665,1.069 0.685,2.07 0.02,1.001 -0.214,1.705 -0.505,2.225 -0.241,-0.77 -0.357,-1.984 -0.357,-2.778 0,0 -0.018,-1.517 0.177,-1.517 z m -2.487,13.682 c 0.295,-0.529 0.603,-1.086 0.917,-1.677 0.765,-1.447 1.249,-2.58 1.609,-3.511 0.716,1.303 1.608,2.41 2.656,3.297 0.131,0.111 0.269,0.222 0.415,0.333 -2.132,0.422 -3.974,0.935 -5.596,1.558 z m 13.439,-0.12 c -0.13,0.081 -0.502,0.128 -0.741,0.128 -0.772,0 -1.727,-0.353 -3.066,-0.927 0.515,-0.038 0.986,-0.057 1.409,-0.057 0.774,0 1.004,-0.003 1.761,0.19 0.757,0.193 0.767,0.585 0.637,0.667 z M 28.233,6.232 23.768,1.768 C 22.796,0.796 20.875,0 19.5,0 H 4.5 C 3.125,0 2,1.125 2,2.5 v 27 C 2,30.875 3.125,32 4.5,32 h 23 c 1.375,0 2.5,-1.125 2.5,-2.5 v -19 C 30,9.125 29.204,7.204 28.232,6.232 z M 26.819,7.646 C 26.917,7.744 27.014,7.864 27.109,8 H 22.001 V 2.892 c 0.136,0.095 0.256,0.192 0.354,0.29 L 26.82,7.646 z M 28.001,29.5 c 0,0.271 -0.229,0.5 -0.5,0.5 h -23 c -0.271,0 -0.5,-0.229 -0.5,-0.5 V 2.5 C 4.001,2.229 4.23,2 4.501,2 h 15 c 0.151,0 0.32,0.019 0.5,0.053 V 10 h 7.947 c 0.034,0.18 0.053,0.349 0.053,0.5 v 19 z"
     id="path3876"
     style="fill:#ffffff"
     inkscape:connector-curvature="0" />
</svg>
