<?xml version="1.0" encoding="UTF-8" standalone="no"?>
<!-- Generated by IcoMoon.io -->

<svg
   xmlns:dc="http://purl.org/dc/elements/1.1/"
   xmlns:cc="http://creativecommons.org/ns#"
   xmlns:rdf="http://www.w3.org/1999/02/22-rdf-syntax-ns#"
   xmlns:svg="http://www.w3.org/2000/svg"
   xmlns="http://www.w3.org/2000/svg"
   xmlns:sodipodi="http://sodipodi.sourceforge.net/DTD/sodipodi-0.dtd"
   xmlns:inkscape="http://www.inkscape.org/namespaces/inkscape"
   version="1.1"
   width="32"
   height="32"
   viewBox="0 0 32 32"
   id="svg3884"
   inkscape:version="0.48.5 r10040"
   sodipodi:docname="globe.svg"
   inkscape:export-filename="/home/dameat/Downloads/SVG/website.png"
   inkscape:export-xdpi="168.75"
   inkscape:export-ydpi="168.75">
  <metadata
     id="metadata3892">
    <rdf:RDF>
      <cc:Work
         rdf:about="">
        <dc:format>image/svg+xml</dc:format>
        <dc:type
           rdf:resource="http://purl.org/dc/dcmitype/StillImage" />
        <dc:title></dc:title>
      </cc:Work>
    </rdf:RDF>
  </metadata>
  <defs
     id="defs3890" />
  <sodipodi:namedview
     pagecolor="#ffffff"
     bordercolor="#666666"
     borderopacity="1"
     objecttolerance="10"
     gridtolerance="10"
     guidetolerance="10"
     inkscape:pageopacity="0"
     inkscape:pageshadow="2"
     inkscape:window-width="1920"
     inkscape:window-height="1056"
     id="namedview3888"
     showgrid="false"
     showguides="true"
     inkscape:guide-bbox="true"
     inkscape:zoom="7.375"
     inkscape:cx="15.864407"
     inkscape:cy="16"
     inkscape:window-x="0"
     inkscape:window-y="24"
     inkscape:window-maximized="1"
     inkscape:current-layer="svg3884" />
  <rect
     style="fill:#920000;fill-opacity:1;fill-rule:nonzero;stroke:none"
     id="rect4434"
     width="40"
     height="40"
     x="-4"
     y="-4"
     rx="5"
     ry="5" />
  <path
     d="M 16,1 C 7.716,1 1,7.716 1,16 1,24.284 7.716,31 16,31 24.284,31 31,24.284 31,16 31,7.716 24.284,1 16,1 z m 8.487,20 c 0.268,-1.264 0.437,-2.606 0.492,-4 h 3.983 c -0.104,1.381 -0.426,2.722 -0.959,4 H 24.487 z M 7.513,11 C 7.245,12.264 7.076,13.606 7.021,15 H 3.038 c 0.104,-1.381 0.426,-2.722 0.959,-4 h 3.516 z m 14.926,0 c 0.3,1.28 0.481,2.62 0.54,4 H 17 v -4 h 5.439 z M 17,9 V 3.146 c 0.456,0.133 0.908,0.355 1.351,0.668 0.831,0.586 1.625,1.488 2.298,2.609 0.465,0.775 0.867,1.638 1.203,2.578 H 17 z M 11.351,6.422 C 12.024,5.301 12.818,4.399 13.649,3.813 14.092,3.5 14.544,3.278 15,3.145 v 5.854 h -4.852 c 0.336,-0.94 0.738,-1.803 1.203,-2.578 z M 15,11 v 4 H 9.021 c 0.059,-1.38 0.24,-2.72 0.54,-4 H 15 z M 3.997,21 C 3.464,19.722 3.143,18.381 3.038,17 h 3.983 c 0.055,1.394 0.224,2.736 0.492,4 H 3.997 z M 9.021,17 H 15 v 4 H 9.561 C 9.261,19.72 9.08,18.38 9.021,17 z M 15,23 v 5.854 C 14.544,28.721 14.092,28.499 13.649,28.186 12.818,27.6 12.024,26.698 11.351,25.577 10.886,24.802 10.484,23.939 10.148,22.999 H 15 z m 5.649,2.578 c -0.673,1.121 -1.467,2.023 -2.298,2.609 -0.443,0.312 -0.895,0.535 -1.351,0.668 v -5.854 h 4.852 c -0.336,0.94 -0.738,1.802 -1.203,2.578 z M 17,21 v -4 h 5.979 c -0.059,1.38 -0.24,2.72 -0.54,4 H 17 z m 7.98,-6 c -0.055,-1.394 -0.224,-2.736 -0.492,-4 h 3.516 c 0.533,1.278 0.855,2.619 0.959,4 H 24.98 z M 26.958,9 H 23.961 C 23.379,7.164 22.574,5.553 21.607,4.268 22.936,4.904 24.14,5.756 25.192,6.808 25.863,7.479 26.453,8.212 26.958,9 z M 6.808,6.808 C 7.86,5.756 9.064,4.904 10.393,4.268 9.426,5.553 8.622,7.164 8.039,9 H 5.042 C 5.546,8.212 6.136,7.479 6.808,6.808 z M 5.042,23 h 2.997 c 0.583,1.836 1.387,3.447 2.354,4.732 C 9.064,27.096 7.86,26.244 6.808,25.192 6.137,24.521 5.547,23.788 5.042,23 z m 20.15,2.192 c -1.052,1.052 -2.256,1.904 -3.585,2.54 0.967,-1.285 1.771,-2.896 2.354,-4.732 h 2.997 c -0.504,0.788 -1.094,1.521 -1.766,2.192 z"
     id="path3886"
     style="fill:#ffffff;stroke:none;stroke-opacity:1;stroke-width:0.10000000000000001;stroke-miterlimit:4;stroke-dasharray:none"
     inkscape:connector-curvature="0"
     inkscape:export-xdpi="576"
     inkscape:export-ydpi="576" />
</svg>
